<svg width="1200" height="90" viewBox="0 0 1200 90" fill="none" xmlns="http://www.w3.org/2000/svg">
<g clip-path="url(#clip0_2_5)">
<path fill-rule="evenodd" clip-rule="evenodd" d="M63.2538 34.1545C64.7682 34.1545 66.1385 34.5359 67.3649 35.2907C68.5913 36.0508 69.5618 37.1247 70.2763 38.5205C70.9908 39.9164 71.3481 41.534 71.3481 43.3735C71.3481 45.213 70.9908 46.8415 70.2763 48.2589C69.5618 49.6764 68.5913 50.7747 67.3649 51.5538C66.1385 52.3328 64.7682 52.7224 63.2538 52.7224C61.9528 52.7224 60.8064 52.4519 59.8146 51.9108C58.8228 51.3698 58.0176 50.6881 57.3991 49.8658V61H52.92V34.4467H57.3991V37.0436C57.975 36.2239 58.7695 35.5341 59.7826 34.9823C60.7957 34.4304 61.9528 34.1545 63.2538 34.1545ZM81.074 34.1545C82.759 34.1545 84.268 34.5224 85.601 35.2582C86.9341 35.994 87.9685 37.0382 88.7044 38.3907C89.4402 39.7433 89.8081 41.296 89.8081 43.0489C89.8081 43.6981 89.7655 44.2824 89.6802 44.8018H76.7229C76.8296 46.1003 77.2775 47.1174 78.0666 47.8532C78.8558 48.589 79.8263 48.9569 80.978 48.9569C82.6417 48.9569 83.8254 48.2319 84.5293 46.7819H89.3602C88.8483 48.5132 87.8672 49.9361 86.4169 51.0506C84.9665 52.1678 83.1855 52.7224 81.074 52.7224C79.3677 52.7224 77.8374 52.3382 76.483 51.57C75.1286 50.8017 74.0728 49.7143 73.3157 48.3076C72.5585 46.901 72.1799 45.2779 72.1799 43.4384C72.1799 41.58 72.5532 39.9461 73.2997 38.5368C74.0462 37.1301 75.0913 36.0508 76.435 35.2907C77.7787 34.5359 79.325 34.1545 81.074 34.1545ZM151.266 34.1545C152.951 34.1545 154.46 34.5224 155.793 35.2582C157.126 35.994 158.16 37.0382 158.896 38.3907C159.632 39.7433 160 41.296 160 43.0489C160 43.6981 159.957 44.2824 159.872 44.8018H146.915C147.021 46.1003 147.469 47.1174 148.259 47.8532C149.048 48.589 150.018 48.9569 151.17 48.9569C152.834 48.9569 154.017 48.2319 154.721 46.7819H159.552C159.04 48.5132 158.059 49.9361 156.609 51.0506C155.158 52.1678 153.377 52.7224 151.266 52.7224C149.56 52.7224 148.029 52.3382 146.675 51.57C145.32 50.8017 144.265 49.7143 143.508 48.3076C142.75 46.901 142.372 45.2779 142.372 43.4384C142.372 41.58 142.745 39.9461 143.492 38.5368C144.238 37.1301 145.283 36.0508 146.627 35.2907C147.971 34.5359 149.517 34.1545 151.266 34.1545ZM36.4257 46.3326L44.6639 51.1748C44.344 51.4453 43.9708 51.6887 43.5709 51.9052C42.5577 52.4462 41.3847 52.7167 40.0516 52.7167C38.7452 52.7167 37.5188 52.4191 36.4257 51.797V46.3326ZM118.248 34.4475V44.3482C118.248 45.7765 118.6 46.8747 119.304 47.643C120.008 48.4112 120.968 48.7954 122.184 48.7954C123.421 48.7954 124.391 48.4112 125.095 47.643C125.799 46.8747 126.151 45.7765 126.151 44.3482V34.4475H130.662V52.431H126.151V50.1587C125.575 50.9378 124.823 51.5492 123.895 51.9928C122.967 52.4364 121.96 52.6583 120.872 52.6583C119.485 52.6583 118.259 52.3607 117.193 51.7656C116.126 51.1704 115.289 50.294 114.681 49.1362C114.073 47.9784 113.769 46.5988 113.769 44.9974V34.4475H118.248ZM101.07 34.188V38.9599H99.886C98.4783 38.9599 97.4172 39.2953 96.7027 39.9662C95.9881 40.637 95.6309 41.8056 95.6309 43.472V52.4313H91.1518V34.4477H95.6309V37.2394C96.2068 36.2872 96.9586 35.5406 97.8864 34.9996C98.8142 34.4586 99.8753 34.188 101.07 34.188ZM142.436 34.188V38.9599H141.252C139.844 38.9599 138.783 39.2953 138.069 39.9662C137.354 40.637 136.997 41.8056 136.997 43.472V52.4313H132.518V34.4477H136.997V37.2394C137.573 36.2872 138.325 35.5406 139.252 34.9996C140.18 34.4586 141.241 34.188 142.436 34.188ZM108.652 30V34.4472H112.619V38.1802H108.652V46.8799C108.652 47.4858 108.796 47.924 109.084 48.1946C109.372 48.4651 109.857 48.6003 110.54 48.6003H112.619V52.4308H109.804C106.029 52.4308 104.141 50.5696 104.141 46.8474V38.1802H102.03V34.4472H104.141V30H108.652ZM50.4494 42.572V52.4186H45.9437V49.7946C45.7304 50.1192 45.4904 50.4168 45.1972 50.6873L40.8781 48.1716L50.4494 42.572ZM35.7592 41.5167V51.3904C34.6394 50.6329 33.733 49.605 33.0664 48.2524C32.3999 46.9269 32.0533 45.4121 32 43.7079L35.7592 41.5167ZM62.0701 38.1472C61.2596 38.1472 60.4971 38.3582 59.7826 38.7802C59.0681 39.2022 58.4922 39.8136 58.0549 40.6143C57.6177 41.415 57.3991 42.3564 57.3991 43.4384C57.3991 44.5205 57.6177 45.4646 58.0549 46.2626C58.4922 47.0633 59.0681 47.6746 59.7826 48.0966C60.4971 48.5186 61.2596 48.7296 62.0701 48.7296C62.9019 48.7296 63.6751 48.5132 64.3896 48.0804C65.1041 47.6476 65.68 47.0308 66.1172 46.2301C66.5545 45.4294 66.7731 44.4772 66.7731 43.3735C66.7731 42.2915 66.5545 41.3555 66.1172 40.5656C65.68 39.7757 65.1041 39.1752 64.3896 38.764C63.6751 38.3528 62.9019 38.1472 62.0701 38.1472ZM50.4488 34.4567V41.7875L44.6634 45.1689V35.701C45.17 36.0797 45.5965 36.5125 45.9431 36.9995V34.4567H50.4488ZM35.0927 35.9177L39.545 38.5146L32.0267 42.9239C32.0533 41.2738 32.3999 39.8131 33.0664 38.5416C33.5997 37.4867 34.2928 36.621 35.0927 35.9177ZM80.946 37.8876C79.8369 37.8876 78.9038 38.2284 78.1466 38.9101C77.3895 39.5918 76.9256 40.5386 76.7549 41.7505H85.1691C85.1478 40.5818 84.7319 39.6459 83.9214 38.9425C83.1109 38.2392 82.1191 37.8876 80.946 37.8876ZM151.138 37.8876C150.029 37.8876 149.096 38.2284 148.339 38.9101C147.581 39.5918 147.117 40.5386 146.947 41.7505H155.361C155.34 40.5818 154.924 39.6459 154.113 38.9425C153.303 38.2392 152.311 37.8876 151.138 37.8876ZM40.1044 34.1594C41.4108 34.1594 42.5572 34.4299 43.5703 34.9709C43.7036 35.0521 43.8636 35.1332 43.9969 35.2414V40.3541L35.7053 35.4849C35.7853 35.4037 35.892 35.3496 35.9719 35.2955C37.1984 34.5381 38.5847 34.1594 40.1044 34.1594Z" fill="white"/>
</g>
<path d="M505.538 45.333C505.867 45.385 506.166 45.5193 506.435 45.736C506.712 45.9527 506.929 46.2213 507.085 46.542C507.25 46.8627 507.332 47.205 507.332 47.569C507.332 48.0283 507.215 48.4443 506.981 48.817C506.747 49.181 506.405 49.4713 505.954 49.688C505.512 49.896 504.988 50 504.381 50H501.001V40.939H504.251C504.866 40.939 505.391 41.043 505.824 41.251C506.257 41.4503 506.582 41.7233 506.799 42.07C507.016 42.4167 507.124 42.8067 507.124 43.24C507.124 43.7773 506.977 44.2237 506.682 44.579C506.396 44.9257 506.015 45.177 505.538 45.333ZM502.184 44.852H504.173C504.728 44.852 505.157 44.722 505.46 44.462C505.763 44.202 505.915 43.8423 505.915 43.383C505.915 42.9237 505.763 42.564 505.46 42.304C505.157 42.044 504.719 41.914 504.147 41.914H502.184V44.852ZM504.277 49.025C504.866 49.025 505.326 48.8863 505.655 48.609C505.984 48.3317 506.149 47.946 506.149 47.452C506.149 46.9493 505.976 46.555 505.629 46.269C505.282 45.9743 504.819 45.827 504.238 45.827H502.184V49.025H504.277ZM515.292 42.876V50H514.109V48.947C513.883 49.311 513.567 49.597 513.16 49.805C512.761 50.0043 512.319 50.104 511.834 50.104C511.279 50.104 510.781 49.9913 510.339 49.766C509.897 49.532 509.546 49.1853 509.286 48.726C509.034 48.2667 508.909 47.7077 508.909 47.049V42.876H510.079V46.893C510.079 47.595 510.256 48.1367 510.612 48.518C510.967 48.8907 511.452 49.077 512.068 49.077C512.7 49.077 513.199 48.882 513.563 48.492C513.927 48.102 514.109 47.5343 514.109 46.789V42.876H515.292ZM519.811 50.117C519.265 50.117 518.775 50.026 518.342 49.844C517.909 49.6533 517.566 49.3933 517.315 49.064C517.064 48.726 516.925 48.3403 516.899 47.907H518.121C518.156 48.2623 518.32 48.5527 518.615 48.778C518.918 49.0033 519.313 49.116 519.798 49.116C520.249 49.116 520.604 49.0163 520.864 48.817C521.124 48.6177 521.254 48.3663 521.254 48.063C521.254 47.751 521.115 47.5213 520.838 47.374C520.561 47.218 520.132 47.0663 519.551 46.919C519.022 46.7803 518.589 46.6417 518.251 46.503C517.922 46.3557 517.636 46.1433 517.393 45.866C517.159 45.58 517.042 45.2073 517.042 44.748C517.042 44.384 517.15 44.0503 517.367 43.747C517.584 43.4437 517.891 43.2053 518.29 43.032C518.689 42.85 519.144 42.759 519.655 42.759C520.444 42.759 521.081 42.9583 521.566 43.357C522.051 43.7557 522.311 44.3017 522.346 44.995H521.163C521.137 44.6223 520.985 44.3233 520.708 44.098C520.439 43.8727 520.075 43.76 519.616 43.76C519.191 43.76 518.853 43.851 518.602 44.033C518.351 44.215 518.225 44.4533 518.225 44.748C518.225 44.982 518.299 45.177 518.446 45.333C518.602 45.4803 518.793 45.6017 519.018 45.697C519.252 45.7837 519.573 45.8833 519.98 45.996C520.491 46.1347 520.907 46.2733 521.228 46.412C521.549 46.542 521.822 46.7413 522.047 47.01C522.281 47.2787 522.402 47.6297 522.411 48.063C522.411 48.453 522.303 48.804 522.086 49.116C521.869 49.428 521.562 49.675 521.163 49.857C520.773 50.0303 520.322 50.117 519.811 50.117ZM524.692 41.719C524.467 41.719 524.276 41.641 524.12 41.485C523.964 41.329 523.886 41.1383 523.886 40.913C523.886 40.6877 523.964 40.497 524.12 40.341C524.276 40.185 524.467 40.107 524.692 40.107C524.909 40.107 525.091 40.185 525.238 40.341C525.394 40.497 525.472 40.6877 525.472 40.913C525.472 41.1383 525.394 41.329 525.238 41.485C525.091 41.641 524.909 41.719 524.692 41.719ZM525.264 42.876V50H524.081V42.876H525.264ZM530.751 42.746C531.618 42.746 532.32 43.0103 532.857 43.539C533.395 44.059 533.663 44.813 533.663 45.801V50H532.493V45.97C532.493 45.2593 532.316 44.7177 531.96 44.345C531.605 43.9637 531.12 43.773 530.504 43.773C529.88 43.773 529.382 43.968 529.009 44.358C528.645 44.748 528.463 45.3157 528.463 46.061V50H527.28V42.876H528.463V43.89C528.697 43.526 529.014 43.2443 529.412 43.045C529.82 42.8457 530.266 42.746 530.751 42.746ZM542.096 46.165C542.096 46.3903 542.083 46.6287 542.057 46.88H536.363C536.406 47.582 536.644 48.1323 537.078 48.531C537.52 48.921 538.053 49.116 538.677 49.116C539.188 49.116 539.613 48.999 539.951 48.765C540.297 48.5223 540.54 48.2017 540.679 47.803H541.953C541.762 48.4877 541.381 49.0467 540.809 49.48C540.237 49.9047 539.526 50.117 538.677 50.117C538.001 50.117 537.394 49.9653 536.857 49.662C536.328 49.3587 535.912 48.9297 535.609 48.375C535.305 47.8117 535.154 47.1617 535.154 46.425C535.154 45.6883 535.301 45.0427 535.596 44.488C535.89 43.9333 536.302 43.5087 536.831 43.214C537.368 42.9107 537.983 42.759 538.677 42.759C539.353 42.759 539.951 42.9063 540.471 43.201C540.991 43.4957 541.389 43.903 541.667 44.423C541.953 44.9343 542.096 45.515 542.096 46.165ZM540.874 45.918C540.874 45.4673 540.774 45.0817 540.575 44.761C540.375 44.4317 540.102 44.1847 539.756 44.02C539.418 43.8467 539.041 43.76 538.625 43.76C538.027 43.76 537.515 43.9507 537.091 44.332C536.675 44.7133 536.436 45.242 536.376 45.918H540.874ZM546.179 50.117C545.633 50.117 545.144 50.026 544.71 49.844C544.277 49.6533 543.935 49.3933 543.683 49.064C543.432 48.726 543.293 48.3403 543.267 47.907H544.489C544.524 48.2623 544.689 48.5527 544.983 48.778C545.287 49.0033 545.681 49.116 546.166 49.116C546.617 49.116 546.972 49.0163 547.232 48.817C547.492 48.6177 547.622 48.3663 547.622 48.063C547.622 47.751 547.484 47.5213 547.206 47.374C546.929 47.218 546.5 47.0663 545.919 46.919C545.391 46.7803 544.957 46.6417 544.619 46.503C544.29 46.3557 544.004 46.1433 543.761 45.866C543.527 45.58 543.41 45.2073 543.41 44.748C543.41 44.384 543.519 44.0503 543.735 43.747C543.952 43.4437 544.26 43.2053 544.658 43.032C545.057 42.85 545.512 42.759 546.023 42.759C546.812 42.759 547.449 42.9583 547.934 43.357C548.42 43.7557 548.68 44.3017 548.714 44.995H547.531C547.505 44.6223 547.354 44.3233 547.076 44.098C546.808 43.8727 546.444 43.76 545.984 43.76C545.56 43.76 545.222 43.851 544.97 44.033C544.719 44.215 544.593 44.4533 544.593 44.748C544.593 44.982 544.667 45.177 544.814 45.333C544.97 45.4803 545.161 45.6017 545.386 45.697C545.62 45.7837 545.941 45.8833 546.348 45.996C546.86 46.1347 547.276 46.2733 547.596 46.412C547.917 46.542 548.19 46.7413 548.415 47.01C548.649 47.2787 548.771 47.6297 548.779 48.063C548.779 48.453 548.671 48.804 548.454 49.116C548.238 49.428 547.93 49.675 547.531 49.857C547.141 50.0303 546.691 50.117 546.179 50.117ZM552.971 50.117C552.425 50.117 551.936 50.026 551.502 49.844C551.069 49.6533 550.727 49.3933 550.475 49.064C550.224 48.726 550.085 48.3403 550.059 47.907H551.281C551.316 48.2623 551.481 48.5527 551.775 48.778C552.079 49.0033 552.473 49.116 552.958 49.116C553.409 49.116 553.764 49.0163 554.024 48.817C554.284 48.6177 554.414 48.3663 554.414 48.063C554.414 47.751 554.276 47.5213 553.998 47.374C553.721 47.218 553.292 47.0663 552.711 46.919C552.183 46.7803 551.749 46.6417 551.411 46.503C551.082 46.3557 550.796 46.1433 550.553 45.866C550.319 45.58 550.202 45.2073 550.202 44.748C550.202 44.384 550.311 44.0503 550.527 43.747C550.744 43.4437 551.052 43.2053 551.45 43.032C551.849 42.85 552.304 42.759 552.815 42.759C553.604 42.759 554.241 42.9583 554.726 43.357C555.212 43.7557 555.472 44.3017 555.506 44.995H554.323C554.297 44.6223 554.146 44.3233 553.868 44.098C553.6 43.8727 553.236 43.76 552.776 43.76C552.352 43.76 552.014 43.851 551.762 44.033C551.511 44.215 551.385 44.4533 551.385 44.748C551.385 44.982 551.459 45.177 551.606 45.333C551.762 45.4803 551.953 45.6017 552.178 45.697C552.412 45.7837 552.733 45.8833 553.14 45.996C553.652 46.1347 554.068 46.2733 554.388 46.412C554.709 46.542 554.982 46.7413 555.207 47.01C555.441 47.2787 555.563 47.6297 555.571 48.063C555.571 48.453 555.463 48.804 555.246 49.116C555.03 49.428 554.722 49.675 554.323 49.857C553.933 50.0303 553.483 50.117 552.971 50.117ZM560.265 46.412C560.265 45.684 560.412 45.047 560.707 44.501C561.002 43.9463 561.405 43.5173 561.916 43.214C562.436 42.9107 563.012 42.759 563.645 42.759C564.269 42.759 564.811 42.8933 565.27 43.162C565.729 43.4307 566.072 43.7687 566.297 44.176V42.876H567.493V50H566.297V48.674C566.063 49.09 565.712 49.4367 565.244 49.714C564.785 49.9827 564.247 50.117 563.632 50.117C562.999 50.117 562.427 49.961 561.916 49.649C561.405 49.337 561.002 48.8993 560.707 48.336C560.412 47.7727 560.265 47.1313 560.265 46.412ZM566.297 46.425C566.297 45.8877 566.189 45.4197 565.972 45.021C565.755 44.6223 565.461 44.319 565.088 44.111C564.724 43.8943 564.321 43.786 563.879 43.786C563.437 43.786 563.034 43.89 562.67 44.098C562.306 44.306 562.016 44.6093 561.799 45.008C561.582 45.4067 561.474 45.8747 561.474 46.412C561.474 46.958 561.582 47.4347 561.799 47.842C562.016 48.2407 562.306 48.5483 562.67 48.765C563.034 48.973 563.437 49.077 563.879 49.077C564.321 49.077 564.724 48.973 565.088 48.765C565.461 48.5483 565.755 48.2407 565.972 47.842C566.189 47.4347 566.297 46.9623 566.297 46.425ZM570.675 44.033C570.883 43.6257 571.178 43.3093 571.559 43.084C571.949 42.8587 572.422 42.746 572.976 42.746V43.968H572.664C571.338 43.968 570.675 44.6873 570.675 46.126V50H569.492V42.876H570.675V44.033ZM580.842 46.165C580.842 46.3903 580.829 46.6287 580.803 46.88H575.109C575.152 47.582 575.39 48.1323 575.824 48.531C576.266 48.921 576.799 49.116 577.423 49.116C577.934 49.116 578.359 48.999 578.697 48.765C579.043 48.5223 579.286 48.2017 579.425 47.803H580.699C580.508 48.4877 580.127 49.0467 579.555 49.48C578.983 49.9047 578.272 50.117 577.423 50.117C576.747 50.117 576.14 49.9653 575.603 49.662C575.074 49.3587 574.658 48.9297 574.355 48.375C574.051 47.8117 573.9 47.1617 573.9 46.425C573.9 45.6883 574.047 45.0427 574.342 44.488C574.636 43.9333 575.048 43.5087 575.577 43.214C576.114 42.9107 576.729 42.759 577.423 42.759C578.099 42.759 578.697 42.9063 579.217 43.201C579.737 43.4957 580.135 43.903 580.413 44.423C580.699 44.9343 580.842 45.515 580.842 46.165ZM579.62 45.918C579.62 45.4673 579.52 45.0817 579.321 44.761C579.121 44.4317 578.848 44.1847 578.502 44.02C578.164 43.8467 577.787 43.76 577.371 43.76C576.773 43.76 576.261 43.9507 575.837 44.332C575.421 44.7133 575.182 45.242 575.122 45.918H579.62ZM581.961 46.412C581.961 45.684 582.109 45.047 582.403 44.501C582.698 43.9463 583.101 43.5173 583.612 43.214C584.132 42.9107 584.709 42.759 585.341 42.759C585.965 42.759 586.507 42.8933 586.966 43.162C587.426 43.4307 587.768 43.7687 587.993 44.176V42.876H589.189V50H587.993V48.674C587.759 49.09 587.408 49.4367 586.94 49.714C586.481 49.9827 585.944 50.117 585.328 50.117C584.696 50.117 584.124 49.961 583.612 49.649C583.101 49.337 582.698 48.8993 582.403 48.336C582.109 47.7727 581.961 47.1313 581.961 46.412ZM587.993 46.425C587.993 45.8877 587.885 45.4197 587.668 45.021C587.452 44.6223 587.157 44.319 586.784 44.111C586.42 43.8943 586.017 43.786 585.575 43.786C585.133 43.786 584.73 43.89 584.366 44.098C584.002 44.306 583.712 44.6093 583.495 45.008C583.279 45.4067 583.17 45.8747 583.17 46.412C583.17 46.958 583.279 47.4347 583.495 47.842C583.712 48.2407 584.002 48.5483 584.366 48.765C584.73 48.973 585.133 49.077 585.575 49.077C586.017 49.077 586.42 48.973 586.784 48.765C587.157 48.5483 587.452 48.2407 587.668 47.842C587.885 47.4347 587.993 46.9623 587.993 46.425ZM593.711 50.117C593.165 50.117 592.675 50.026 592.242 49.844C591.808 49.6533 591.466 49.3933 591.215 49.064C590.963 48.726 590.825 48.3403 590.799 47.907H592.021C592.055 48.2623 592.22 48.5527 592.515 48.778C592.818 49.0033 593.212 49.116 593.698 49.116C594.148 49.116 594.504 49.0163 594.764 48.817C595.024 48.6177 595.154 48.3663 595.154 48.063C595.154 47.751 595.015 47.5213 594.738 47.374C594.46 47.218 594.031 47.0663 593.451 46.919C592.922 46.7803 592.489 46.6417 592.151 46.503C591.821 46.3557 591.535 46.1433 591.293 45.866C591.059 45.58 590.942 45.2073 590.942 44.748C590.942 44.384 591.05 44.0503 591.267 43.747C591.483 43.4437 591.791 43.2053 592.19 43.032C592.588 42.85 593.043 42.759 593.555 42.759C594.343 42.759 594.98 42.9583 595.466 43.357C595.951 43.7557 596.211 44.3017 596.246 44.995H595.063C595.037 44.6223 594.885 44.3233 594.608 44.098C594.339 43.8727 593.975 43.76 593.516 43.76C593.091 43.76 592.753 43.851 592.502 44.033C592.25 44.215 592.125 44.4533 592.125 44.748C592.125 44.982 592.198 45.177 592.346 45.333C592.502 45.4803 592.692 45.6017 592.918 45.697C593.152 45.7837 593.472 45.8833 593.88 45.996C594.391 46.1347 594.807 46.2733 595.128 46.412C595.448 46.542 595.721 46.7413 595.947 47.01C596.181 47.2787 596.302 47.6297 596.311 48.063C596.311 48.453 596.202 48.804 595.986 49.116C595.769 49.428 595.461 49.675 595.063 49.857C594.673 50.0303 594.222 50.117 593.711 50.117Z" fill="white"/>
<path d="M827.075 41.575C826.785 40.965 826.365 40.495 825.815 40.165C825.265 39.825 824.625 39.655 823.895 39.655C823.165 39.655 822.505 39.825 821.915 40.165C821.335 40.495 820.875 40.975 820.535 41.605C820.205 42.225 820.04 42.945 820.04 43.765C820.04 44.585 820.205 45.305 820.535 45.925C820.875 46.545 821.335 47.025 821.915 47.365C822.505 47.695 823.165 47.86 823.895 47.86C824.915 47.86 825.755 47.555 826.415 46.945C827.075 46.335 827.46 45.51 827.57 44.47H823.4V43.36H829.025V44.41C828.945 45.27 828.675 46.06 828.215 46.78C827.755 47.49 827.15 48.055 826.4 48.475C825.65 48.885 824.815 49.09 823.895 49.09C822.925 49.09 822.04 48.865 821.24 48.415C820.44 47.955 819.805 47.32 819.335 46.51C818.875 45.7 818.645 44.785 818.645 43.765C818.645 42.745 818.875 41.83 819.335 41.02C819.805 40.2 820.44 39.565 821.24 39.115C822.04 38.655 822.925 38.425 823.895 38.425C825.005 38.425 825.985 38.7 826.835 39.25C827.695 39.8 828.32 40.575 828.71 41.575H827.075ZM838.33 44.575C838.33 44.835 838.315 45.11 838.285 45.4H831.715C831.765 46.21 832.04 46.845 832.54 47.305C833.05 47.755 833.665 47.98 834.385 47.98C834.975 47.98 835.465 47.845 835.855 47.575C836.255 47.295 836.535 46.925 836.695 46.465H838.165C837.945 47.255 837.505 47.9 836.845 48.4C836.185 48.89 835.365 49.135 834.385 49.135C833.605 49.135 832.905 48.96 832.285 48.61C831.675 48.26 831.195 47.765 830.845 47.125C830.495 46.475 830.32 45.725 830.32 44.875C830.32 44.025 830.49 43.28 830.83 42.64C831.17 42 831.645 41.51 832.255 41.17C832.875 40.82 833.585 40.645 834.385 40.645C835.165 40.645 835.855 40.815 836.455 41.155C837.055 41.495 837.515 41.965 837.835 42.565C838.165 43.155 838.33 43.825 838.33 44.575ZM836.92 44.29C836.92 43.77 836.805 43.325 836.575 42.955C836.345 42.575 836.03 42.29 835.63 42.1C835.24 41.9 834.805 41.8 834.325 41.8C833.635 41.8 833.045 42.02 832.555 42.46C832.075 42.9 831.8 43.51 831.73 44.29H836.92ZM839.622 44.86C839.622 44.02 839.792 43.285 840.132 42.655C840.472 42.015 840.937 41.52 841.527 41.17C842.127 40.82 842.792 40.645 843.522 40.645C844.242 40.645 844.867 40.8 845.397 41.11C845.927 41.42 846.322 41.81 846.582 42.28V40.78H847.962V49H846.582V47.47C846.312 47.95 845.907 48.35 845.367 48.67C844.837 48.98 844.217 49.135 843.507 49.135C842.777 49.135 842.117 48.955 841.527 48.595C840.937 48.235 840.472 47.73 840.132 47.08C839.792 46.43 839.622 45.69 839.622 44.86ZM846.582 44.875C846.582 44.255 846.457 43.715 846.207 43.255C845.957 42.795 845.617 42.445 845.187 42.205C844.767 41.955 844.302 41.83 843.792 41.83C843.282 41.83 842.817 41.95 842.397 42.19C841.977 42.43 841.642 42.78 841.392 43.24C841.142 43.7 841.017 44.24 841.017 44.86C841.017 45.49 841.142 46.04 841.392 46.51C841.642 46.97 841.977 47.325 842.397 47.575C842.817 47.815 843.282 47.935 843.792 47.935C844.302 47.935 844.767 47.815 845.187 47.575C845.617 47.325 845.957 46.97 846.207 46.51C846.457 46.04 846.582 45.495 846.582 44.875ZM851.633 42.115C851.873 41.645 852.213 41.28 852.653 41.02C853.103 40.76 853.648 40.63 854.288 40.63V42.04H853.928C852.398 42.04 851.633 42.87 851.633 44.53V49H850.268V40.78H851.633V42.115ZM859.353 44.875C859.353 44.025 859.523 43.285 859.863 42.655C860.203 42.015 860.673 41.52 861.273 41.17C861.883 40.82 862.578 40.645 863.358 40.645C864.368 40.645 865.198 40.89 865.848 41.38C866.508 41.87 866.943 42.55 867.153 43.42H865.683C865.543 42.92 865.268 42.525 864.858 42.235C864.458 41.945 863.958 41.8 863.358 41.8C862.578 41.8 861.948 42.07 861.468 42.61C860.988 43.14 860.748 43.895 860.748 44.875C860.748 45.865 860.988 46.63 861.468 47.17C861.948 47.71 862.578 47.98 863.358 47.98C863.958 47.98 864.458 47.84 864.858 47.56C865.258 47.28 865.533 46.88 865.683 46.36H867.153C866.933 47.2 866.493 47.875 865.833 48.385C865.173 48.885 864.348 49.135 863.358 49.135C862.578 49.135 861.883 48.96 861.273 48.61C860.673 48.26 860.203 47.765 859.863 47.125C859.523 46.485 859.353 45.735 859.353 44.875ZM868.464 44.86C868.464 44.02 868.634 43.285 868.974 42.655C869.314 42.015 869.779 41.52 870.369 41.17C870.969 40.82 871.634 40.645 872.364 40.645C873.084 40.645 873.709 40.8 874.239 41.11C874.769 41.42 875.164 41.81 875.424 42.28V40.78H876.804V49H875.424V47.47C875.154 47.95 874.749 48.35 874.209 48.67C873.679 48.98 873.059 49.135 872.349 49.135C871.619 49.135 870.959 48.955 870.369 48.595C869.779 48.235 869.314 47.73 868.974 47.08C868.634 46.43 868.464 45.69 868.464 44.86ZM875.424 44.875C875.424 44.255 875.299 43.715 875.049 43.255C874.799 42.795 874.459 42.445 874.029 42.205C873.609 41.955 873.144 41.83 872.634 41.83C872.124 41.83 871.659 41.95 871.239 42.19C870.819 42.43 870.484 42.78 870.234 43.24C869.984 43.7 869.859 44.24 869.859 44.86C869.859 45.49 869.984 46.04 870.234 46.51C870.484 46.97 870.819 47.325 871.239 47.575C871.659 47.815 872.124 47.935 872.634 47.935C873.144 47.935 873.609 47.815 874.029 47.575C874.459 47.325 874.799 46.97 875.049 46.51C875.299 46.04 875.424 45.495 875.424 44.875ZM882.501 40.645C883.211 40.645 883.831 40.8 884.361 41.11C884.901 41.42 885.301 41.81 885.561 42.28V40.78H886.941V49.18C886.941 49.93 886.781 50.595 886.461 51.175C886.141 51.765 885.681 52.225 885.081 52.555C884.491 52.885 883.801 53.05 883.011 53.05C881.931 53.05 881.031 52.795 880.311 52.285C879.591 51.775 879.166 51.08 879.036 50.2H880.386C880.536 50.7 880.846 51.1 881.316 51.4C881.786 51.71 882.351 51.865 883.011 51.865C883.761 51.865 884.371 51.63 884.841 51.16C885.321 50.69 885.561 50.03 885.561 49.18V47.455C885.291 47.935 884.891 48.335 884.361 48.655C883.831 48.975 883.211 49.135 882.501 49.135C881.771 49.135 881.106 48.955 880.506 48.595C879.916 48.235 879.451 47.73 879.111 47.08C878.771 46.43 878.601 45.69 878.601 44.86C878.601 44.02 878.771 43.285 879.111 42.655C879.451 42.015 879.916 41.52 880.506 41.17C881.106 40.82 881.771 40.645 882.501 40.645ZM885.561 44.875C885.561 44.255 885.436 43.715 885.186 43.255C884.936 42.795 884.596 42.445 884.166 42.205C883.746 41.955 883.281 41.83 882.771 41.83C882.261 41.83 881.796 41.95 881.376 42.19C880.956 42.43 880.621 42.78 880.371 43.24C880.121 43.7 879.996 44.24 879.996 44.86C879.996 45.49 880.121 46.04 880.371 46.51C880.621 46.97 880.956 47.325 881.376 47.575C881.796 47.815 882.261 47.935 882.771 47.935C883.281 47.935 883.746 47.815 884.166 47.575C884.596 47.325 884.936 46.97 885.186 46.51C885.436 46.04 885.561 45.495 885.561 44.875ZM896.748 44.575C896.748 44.835 896.733 45.11 896.703 45.4H890.133C890.183 46.21 890.458 46.845 890.958 47.305C891.468 47.755 892.083 47.98 892.803 47.98C893.393 47.98 893.883 47.845 894.273 47.575C894.673 47.295 894.953 46.925 895.113 46.465H896.583C896.363 47.255 895.923 47.9 895.263 48.4C894.603 48.89 893.783 49.135 892.803 49.135C892.023 49.135 891.323 48.96 890.703 48.61C890.093 48.26 889.613 47.765 889.263 47.125C888.913 46.475 888.738 45.725 888.738 44.875C888.738 44.025 888.908 43.28 889.248 42.64C889.588 42 890.063 41.51 890.673 41.17C891.293 40.82 892.003 40.645 892.803 40.645C893.583 40.645 894.273 40.815 894.873 41.155C895.473 41.495 895.933 41.965 896.253 42.565C896.583 43.155 896.748 43.825 896.748 44.575ZM895.338 44.29C895.338 43.77 895.223 43.325 894.993 42.955C894.763 42.575 894.448 42.29 894.048 42.1C893.658 41.9 893.223 41.8 892.743 41.8C892.053 41.8 891.463 42.02 890.973 42.46C890.493 42.9 890.218 43.51 890.148 44.29H895.338Z" fill="white"/>
<path d="M1025 38C1025 30.268 1031.27 24 1039 24H1166C1173.73 24 1180 30.268 1180 38V52C1180 59.732 1173.73 66 1166 66H1039C1031.27 66 1025 59.732 1025 52V38Z" fill="white"/>
<path d="M1054.68 41.08C1054.37 40.4293 1053.92 39.928 1053.34 39.576C1052.75 39.2133 1052.07 39.032 1051.29 39.032C1050.51 39.032 1049.81 39.2133 1049.18 39.576C1048.56 39.928 1048.07 40.44 1047.7 41.112C1047.35 41.7733 1047.18 42.5413 1047.18 43.416C1047.18 44.2907 1047.35 45.0587 1047.7 45.72C1048.07 46.3813 1048.56 46.8933 1049.18 47.256C1049.81 47.608 1050.51 47.784 1051.29 47.784C1052.38 47.784 1053.27 47.4587 1053.98 46.808C1054.68 46.1573 1055.09 45.2773 1055.21 44.168H1050.76V42.984H1056.76V44.104C1056.67 45.0213 1056.39 45.864 1055.9 46.632C1055.41 47.3893 1054.76 47.992 1053.96 48.44C1053.16 48.8773 1052.27 49.096 1051.29 49.096C1050.25 49.096 1049.31 48.856 1048.46 48.376C1047.6 47.8853 1046.93 47.208 1046.42 46.344C1045.93 45.48 1045.69 44.504 1045.69 43.416C1045.69 42.328 1045.93 41.352 1046.42 40.488C1046.93 39.6133 1047.6 38.936 1048.46 38.456C1049.31 37.9653 1050.25 37.72 1051.29 37.72C1052.47 37.72 1053.52 38.0133 1054.42 38.6C1055.34 39.1867 1056.01 40.0133 1056.42 41.08H1054.68ZM1067.09 44.28C1067.09 44.5573 1067.07 44.8507 1067.04 45.16H1060.03C1060.08 46.024 1060.38 46.7013 1060.91 47.192C1061.45 47.672 1062.11 47.912 1062.88 47.912C1063.51 47.912 1064.03 47.768 1064.45 47.48C1064.87 47.1813 1065.17 46.7867 1065.34 46.296H1066.91C1066.67 47.1387 1066.21 47.8267 1065.5 48.36C1064.8 48.8827 1063.92 49.144 1062.88 49.144C1062.05 49.144 1061.3 48.9573 1060.64 48.584C1059.99 48.2107 1059.47 47.6827 1059.1 47C1058.73 46.3067 1058.54 45.5067 1058.54 44.6C1058.54 43.6933 1058.72 42.8987 1059.09 42.216C1059.45 41.5333 1059.95 41.0107 1060.61 40.648C1061.27 40.2747 1062.02 40.088 1062.88 40.088C1063.71 40.088 1064.45 40.2693 1065.09 40.632C1065.73 40.9947 1066.22 41.496 1066.56 42.136C1066.91 42.7653 1067.09 43.48 1067.09 44.28ZM1065.58 43.976C1065.58 43.4213 1065.46 42.9467 1065.21 42.552C1064.97 42.1467 1064.63 41.8427 1064.21 41.64C1063.79 41.4267 1063.33 41.32 1062.81 41.32C1062.08 41.32 1061.45 41.5547 1060.93 42.024C1060.41 42.4933 1060.12 43.144 1060.05 43.976H1065.58ZM1071.18 41.432V46.6C1071.18 47.0267 1071.27 47.3307 1071.45 47.512C1071.64 47.6827 1071.95 47.768 1072.4 47.768H1073.47V49H1072.16C1071.35 49 1070.74 48.8133 1070.33 48.44C1069.93 48.0667 1069.73 47.4533 1069.73 46.6V41.432H1068.59V40.232H1069.73V38.024H1071.18V40.232H1073.47V41.432H1071.18ZM1082.08 41.432V46.6C1082.08 47.0267 1082.17 47.3307 1082.35 47.512C1082.53 47.6827 1082.84 47.768 1083.29 47.768H1084.36V49H1083.05C1082.24 49 1081.63 48.8133 1081.23 48.44C1080.82 48.0667 1080.62 47.4533 1080.62 46.6V41.432H1079.48V40.232H1080.62V38.024H1082.08V40.232H1084.36V41.432H1082.08ZM1094.53 44.28C1094.53 44.5573 1094.51 44.8507 1094.48 45.16H1087.47C1087.53 46.024 1087.82 46.7013 1088.35 47.192C1088.9 47.672 1089.55 47.912 1090.32 47.912C1090.95 47.912 1091.47 47.768 1091.89 47.48C1092.32 47.1813 1092.61 46.7867 1092.78 46.296H1094.35C1094.12 47.1387 1093.65 47.8267 1092.94 48.36C1092.24 48.8827 1091.37 49.144 1090.32 49.144C1089.49 49.144 1088.74 48.9573 1088.08 48.584C1087.43 48.2107 1086.92 47.6827 1086.54 47C1086.17 46.3067 1085.98 45.5067 1085.98 44.6C1085.98 43.6933 1086.17 42.8987 1086.53 42.216C1086.89 41.5333 1087.4 41.0107 1088.05 40.648C1088.71 40.2747 1089.47 40.088 1090.32 40.088C1091.15 40.088 1091.89 40.2693 1092.53 40.632C1093.17 40.9947 1093.66 41.496 1094 42.136C1094.35 42.7653 1094.53 43.48 1094.53 44.28ZM1093.02 43.976C1093.02 43.4213 1092.9 42.9467 1092.66 42.552C1092.41 42.1467 1092.08 41.8427 1091.65 41.64C1091.23 41.4267 1090.77 41.32 1090.26 41.32C1089.52 41.32 1088.89 41.5547 1088.37 42.024C1087.86 42.4933 1087.56 43.144 1087.49 43.976H1093.02ZM1107.39 40.072C1108.08 40.072 1108.69 40.216 1109.22 40.504C1109.75 40.7813 1110.17 41.2027 1110.48 41.768C1110.79 42.3333 1110.95 43.0213 1110.95 43.832V49H1109.51V44.04C1109.51 43.1653 1109.29 42.4987 1108.85 42.04C1108.42 41.5707 1107.84 41.336 1107.11 41.336C1106.35 41.336 1105.75 41.5813 1105.3 42.072C1104.85 42.552 1104.63 43.2507 1104.63 44.168V49H1103.19V44.04C1103.19 43.1653 1102.97 42.4987 1102.53 42.04C1102.1 41.5707 1101.52 41.336 1100.79 41.336C1100.03 41.336 1099.43 41.5813 1098.98 42.072C1098.53 42.552 1098.31 43.2507 1098.31 44.168V49H1096.85V40.232H1098.31V41.496C1098.59 41.0373 1098.98 40.6853 1099.46 40.44C1099.95 40.1947 1100.49 40.072 1101.07 40.072C1101.81 40.072 1102.46 40.2373 1103.03 40.568C1103.59 40.8987 1104.01 41.384 1104.29 42.024C1104.54 41.4053 1104.94 40.9253 1105.51 40.584C1106.07 40.2427 1106.7 40.072 1107.39 40.072ZM1115.19 41.848C1115.48 41.3467 1115.91 40.9307 1116.47 40.6C1117.05 40.2587 1117.71 40.088 1118.47 40.088C1119.25 40.088 1119.95 40.2747 1120.58 40.648C1121.22 41.0213 1121.72 41.5493 1122.09 42.232C1122.45 42.904 1122.63 43.688 1122.63 44.584C1122.63 45.4693 1122.45 46.2587 1122.09 46.952C1121.72 47.6453 1121.22 48.184 1120.58 48.568C1119.95 48.952 1119.25 49.144 1118.47 49.144C1117.72 49.144 1117.06 48.9787 1116.49 48.648C1115.92 48.3067 1115.49 47.8853 1115.19 47.384V53.16H1113.74V40.232H1115.19V41.848ZM1121.14 44.584C1121.14 43.9227 1121.01 43.3467 1120.74 42.856C1120.48 42.3653 1120.11 41.992 1119.66 41.736C1119.21 41.48 1118.71 41.352 1118.17 41.352C1117.63 41.352 1117.14 41.4853 1116.68 41.752C1116.23 42.008 1115.87 42.3867 1115.59 42.888C1115.32 43.3787 1115.19 43.9493 1115.19 44.6C1115.19 45.2613 1115.32 45.8427 1115.59 46.344C1115.87 46.8347 1116.23 47.2133 1116.68 47.48C1117.14 47.736 1117.63 47.864 1118.17 47.864C1118.71 47.864 1119.21 47.736 1119.66 47.48C1120.11 47.2133 1120.48 46.8347 1120.74 46.344C1121.01 45.8427 1121.14 45.256 1121.14 44.584ZM1126.4 37.16V49H1124.95V37.16H1126.4ZM1128.74 44.584C1128.74 43.688 1128.92 42.904 1129.29 42.232C1129.65 41.5493 1130.14 41.0213 1130.77 40.648C1131.41 40.2747 1132.12 40.088 1132.9 40.088C1133.67 40.088 1134.34 40.2533 1134.9 40.584C1135.47 40.9147 1135.89 41.3307 1136.17 41.832V40.232H1137.64V49H1136.17V47.368C1135.88 47.88 1135.45 48.3067 1134.87 48.648C1134.3 48.9787 1133.64 49.144 1132.89 49.144C1132.11 49.144 1131.4 48.952 1130.77 48.568C1130.14 48.184 1129.65 47.6453 1129.29 46.952C1128.92 46.2587 1128.74 45.4693 1128.74 44.584ZM1136.17 44.6C1136.17 43.9387 1136.03 43.3627 1135.77 42.872C1135.5 42.3813 1135.14 42.008 1134.68 41.752C1134.23 41.4853 1133.73 41.352 1133.19 41.352C1132.65 41.352 1132.15 41.48 1131.7 41.736C1131.25 41.992 1130.9 42.3653 1130.63 42.856C1130.36 43.3467 1130.23 43.9227 1130.23 44.584C1130.23 45.256 1130.36 45.8427 1130.63 46.344C1130.9 46.8347 1131.25 47.2133 1131.7 47.48C1132.15 47.736 1132.65 47.864 1133.19 47.864C1133.73 47.864 1134.23 47.736 1134.68 47.48C1135.14 47.2133 1135.5 46.8347 1135.77 46.344C1136.03 45.8427 1136.17 45.2613 1136.17 44.6ZM1142.27 41.432V46.6C1142.27 47.0267 1142.36 47.3307 1142.55 47.512C1142.73 47.6827 1143.04 47.768 1143.49 47.768H1144.56V49H1143.25C1142.44 49 1141.83 48.8133 1141.43 48.44C1141.02 48.0667 1140.82 47.4533 1140.82 46.6V41.432H1139.68V40.232H1140.82V38.024H1142.27V40.232H1144.56V41.432H1142.27ZM1154.73 44.28C1154.73 44.5573 1154.71 44.8507 1154.68 45.16H1147.67C1147.72 46.024 1148.02 46.7013 1148.55 47.192C1149.09 47.672 1149.75 47.912 1150.52 47.912C1151.15 47.912 1151.67 47.768 1152.09 47.48C1152.51 47.1813 1152.81 46.7867 1152.98 46.296H1154.55C1154.32 47.1387 1153.85 47.8267 1153.14 48.36C1152.44 48.8827 1151.56 49.144 1150.52 49.144C1149.69 49.144 1148.94 48.9573 1148.28 48.584C1147.63 48.2107 1147.12 47.6827 1146.74 47C1146.37 46.3067 1146.18 45.5067 1146.18 44.6C1146.18 43.6933 1146.36 42.8987 1146.73 42.216C1147.09 41.5333 1147.6 41.0107 1148.25 40.648C1148.91 40.2747 1149.66 40.088 1150.52 40.088C1151.35 40.088 1152.09 40.2693 1152.73 40.632C1153.37 40.9947 1153.86 41.496 1154.2 42.136C1154.55 42.7653 1154.73 43.48 1154.73 44.28ZM1153.22 43.976C1153.22 43.4213 1153.1 42.9467 1152.85 42.552C1152.61 42.1467 1152.27 41.8427 1151.85 41.64C1151.43 41.4267 1150.97 41.32 1150.45 41.32C1149.72 41.32 1149.09 41.5547 1148.57 42.024C1148.05 42.4933 1147.76 43.144 1147.69 43.976H1153.22Z" fill="black"/>
<path d="M665.065 38.545V39.655H660.52V43.18H664.21V44.29H660.52V49H659.155V38.545H665.065ZM674.214 44.575C674.214 44.835 674.199 45.11 674.169 45.4H667.599C667.649 46.21 667.924 46.845 668.424 47.305C668.934 47.755 669.549 47.98 670.269 47.98C670.859 47.98 671.349 47.845 671.739 47.575C672.139 47.295 672.419 46.925 672.579 46.465H674.049C673.829 47.255 673.389 47.9 672.729 48.4C672.069 48.89 671.249 49.135 670.269 49.135C669.489 49.135 668.789 48.96 668.169 48.61C667.559 48.26 667.079 47.765 666.729 47.125C666.379 46.475 666.204 45.725 666.204 44.875C666.204 44.025 666.374 43.28 666.714 42.64C667.054 42 667.529 41.51 668.139 41.17C668.759 40.82 669.469 40.645 670.269 40.645C671.049 40.645 671.739 40.815 672.339 41.155C672.939 41.495 673.399 41.965 673.719 42.565C674.049 43.155 674.214 43.825 674.214 44.575ZM672.804 44.29C672.804 43.77 672.689 43.325 672.459 42.955C672.229 42.575 671.914 42.29 671.514 42.1C671.124 41.9 670.689 41.8 670.209 41.8C669.519 41.8 668.929 42.02 668.439 42.46C667.959 42.9 667.684 43.51 667.614 44.29H672.804ZM675.505 44.86C675.505 44.02 675.675 43.285 676.015 42.655C676.355 42.015 676.82 41.52 677.41 41.17C678.01 40.82 678.675 40.645 679.405 40.645C680.125 40.645 680.75 40.8 681.28 41.11C681.81 41.42 682.205 41.81 682.465 42.28V40.78H683.845V49H682.465V47.47C682.195 47.95 681.79 48.35 681.25 48.67C680.72 48.98 680.1 49.135 679.39 49.135C678.66 49.135 678 48.955 677.41 48.595C676.82 48.235 676.355 47.73 676.015 47.08C675.675 46.43 675.505 45.69 675.505 44.86ZM682.465 44.875C682.465 44.255 682.34 43.715 682.09 43.255C681.84 42.795 681.5 42.445 681.07 42.205C680.65 41.955 680.185 41.83 679.675 41.83C679.165 41.83 678.7 41.95 678.28 42.19C677.86 42.43 677.525 42.78 677.275 43.24C677.025 43.7 676.9 44.24 676.9 44.86C676.9 45.49 677.025 46.04 677.275 46.51C677.525 46.97 677.86 47.325 678.28 47.575C678.7 47.815 679.165 47.935 679.675 47.935C680.185 47.935 680.65 47.815 681.07 47.575C681.5 47.325 681.84 46.97 682.09 46.51C682.34 46.04 682.465 45.495 682.465 44.875ZM687.817 41.905V46.75C687.817 47.15 687.902 47.435 688.072 47.605C688.242 47.765 688.537 47.845 688.957 47.845H689.962V49H688.732C687.972 49 687.402 48.825 687.022 48.475C686.642 48.125 686.452 47.55 686.452 46.75V41.905H685.387V40.78H686.452V38.71H687.817V40.78H689.962V41.905H687.817ZM698.906 40.78V49H697.541V47.785C697.281 48.205 696.916 48.535 696.446 48.775C695.986 49.005 695.476 49.12 694.916 49.12C694.276 49.12 693.701 48.99 693.191 48.73C692.681 48.46 692.276 48.06 691.976 47.53C691.686 47 691.541 46.355 691.541 45.595V40.78H692.891V45.415C692.891 46.225 693.096 46.85 693.506 47.29C693.916 47.72 694.476 47.935 695.186 47.935C695.916 47.935 696.491 47.71 696.911 47.26C697.331 46.81 697.541 46.155 697.541 45.295V40.78H698.906ZM702.576 42.115C702.816 41.645 703.156 41.28 703.596 41.02C704.046 40.76 704.591 40.63 705.231 40.63V42.04H704.871C703.341 42.04 702.576 42.87 702.576 44.53V49H701.211V40.78H702.576V42.115ZM714.306 44.575C714.306 44.835 714.291 45.11 714.261 45.4H707.691C707.741 46.21 708.016 46.845 708.516 47.305C709.026 47.755 709.641 47.98 710.361 47.98C710.951 47.98 711.441 47.845 711.831 47.575C712.231 47.295 712.511 46.925 712.671 46.465H714.141C713.921 47.255 713.481 47.9 712.821 48.4C712.161 48.89 711.341 49.135 710.361 49.135C709.581 49.135 708.881 48.96 708.261 48.61C707.651 48.26 707.171 47.765 706.821 47.125C706.471 46.475 706.296 45.725 706.296 44.875C706.296 44.025 706.466 43.28 706.806 42.64C707.146 42 707.621 41.51 708.231 41.17C708.851 40.82 709.561 40.645 710.361 40.645C711.141 40.645 711.831 40.815 712.431 41.155C713.031 41.495 713.491 41.965 713.811 42.565C714.141 43.155 714.306 43.825 714.306 44.575ZM712.896 44.29C712.896 43.77 712.781 43.325 712.551 42.955C712.321 42.575 712.006 42.29 711.606 42.1C711.216 41.9 710.781 41.8 710.301 41.8C709.611 41.8 709.021 42.02 708.531 42.46C708.051 42.9 707.776 43.51 707.706 44.29H712.896ZM715.598 44.86C715.598 44.02 715.768 43.285 716.108 42.655C716.448 42.015 716.913 41.52 717.503 41.17C718.103 40.82 718.773 40.645 719.513 40.645C720.153 40.645 720.748 40.795 721.298 41.095C721.848 41.385 722.268 41.77 722.558 42.25V37.9H723.938V49H722.558V47.455C722.288 47.945 721.888 48.35 721.358 48.67C720.828 48.98 720.208 49.135 719.498 49.135C718.768 49.135 718.103 48.955 717.503 48.595C716.913 48.235 716.448 47.73 716.108 47.08C715.768 46.43 715.598 45.69 715.598 44.86ZM722.558 44.875C722.558 44.255 722.433 43.715 722.183 43.255C721.933 42.795 721.593 42.445 721.163 42.205C720.743 41.955 720.278 41.83 719.768 41.83C719.258 41.83 718.793 41.95 718.373 42.19C717.953 42.43 717.618 42.78 717.368 43.24C717.118 43.7 716.993 44.24 716.993 44.86C716.993 45.49 717.118 46.04 717.368 46.51C717.618 46.97 717.953 47.325 718.373 47.575C718.793 47.815 719.258 47.935 719.768 47.935C720.278 47.935 720.743 47.815 721.163 47.575C721.593 47.325 721.933 46.97 722.183 46.51C722.433 46.04 722.558 45.495 722.558 44.875ZM730.949 39.445C730.689 39.445 730.469 39.355 730.289 39.175C730.109 38.995 730.019 38.775 730.019 38.515C730.019 38.255 730.109 38.035 730.289 37.855C730.469 37.675 730.689 37.585 730.949 37.585C731.199 37.585 731.409 37.675 731.579 37.855C731.759 38.035 731.849 38.255 731.849 38.515C731.849 38.775 731.759 38.995 731.579 39.175C731.409 39.355 731.199 39.445 730.949 39.445ZM731.609 40.78V49H730.244V40.78H731.609ZM743.82 40.63C744.46 40.63 745.03 40.765 745.53 41.035C746.03 41.295 746.425 41.69 746.715 42.22C747.005 42.75 747.15 43.395 747.15 44.155V49H745.8V44.35C745.8 43.53 745.595 42.905 745.185 42.475C744.785 42.035 744.24 41.815 743.55 41.815C742.84 41.815 742.275 42.045 741.855 42.505C741.435 42.955 741.225 43.61 741.225 44.47V49H739.875V44.35C739.875 43.53 739.67 42.905 739.26 42.475C738.86 42.035 738.315 41.815 737.625 41.815C736.915 41.815 736.35 42.045 735.93 42.505C735.51 42.955 735.3 43.61 735.3 44.47V49H733.935V40.78H735.3V41.965C735.57 41.535 735.93 41.205 736.38 40.975C736.84 40.745 737.345 40.63 737.895 40.63C738.585 40.63 739.195 40.785 739.725 41.095C740.255 41.405 740.65 41.86 740.91 42.46C741.14 41.88 741.52 41.43 742.05 41.11C742.58 40.79 743.17 40.63 743.82 40.63ZM748.879 44.86C748.879 44.02 749.049 43.285 749.389 42.655C749.729 42.015 750.194 41.52 750.784 41.17C751.384 40.82 752.049 40.645 752.779 40.645C753.499 40.645 754.124 40.8 754.654 41.11C755.184 41.42 755.579 41.81 755.839 42.28V40.78H757.219V49H755.839V47.47C755.569 47.95 755.164 48.35 754.624 48.67C754.094 48.98 753.474 49.135 752.764 49.135C752.034 49.135 751.374 48.955 750.784 48.595C750.194 48.235 749.729 47.73 749.389 47.08C749.049 46.43 748.879 45.69 748.879 44.86ZM755.839 44.875C755.839 44.255 755.714 43.715 755.464 43.255C755.214 42.795 754.874 42.445 754.444 42.205C754.024 41.955 753.559 41.83 753.049 41.83C752.539 41.83 752.074 41.95 751.654 42.19C751.234 42.43 750.899 42.78 750.649 43.24C750.399 43.7 750.274 44.24 750.274 44.86C750.274 45.49 750.399 46.04 750.649 46.51C750.899 46.97 751.234 47.325 751.654 47.575C752.074 47.815 752.539 47.935 753.049 47.935C753.559 47.935 754.024 47.815 754.444 47.575C754.874 47.325 755.214 46.97 755.464 46.51C755.714 46.04 755.839 45.495 755.839 44.875ZM762.916 40.645C763.626 40.645 764.246 40.8 764.776 41.11C765.316 41.42 765.716 41.81 765.976 42.28V40.78H767.356V49.18C767.356 49.93 767.196 50.595 766.876 51.175C766.556 51.765 766.096 52.225 765.496 52.555C764.906 52.885 764.216 53.05 763.426 53.05C762.346 53.05 761.446 52.795 760.726 52.285C760.006 51.775 759.581 51.08 759.451 50.2H760.801C760.951 50.7 761.261 51.1 761.731 51.4C762.201 51.71 762.766 51.865 763.426 51.865C764.176 51.865 764.786 51.63 765.256 51.16C765.736 50.69 765.976 50.03 765.976 49.18V47.455C765.706 47.935 765.306 48.335 764.776 48.655C764.246 48.975 763.626 49.135 762.916 49.135C762.186 49.135 761.521 48.955 760.921 48.595C760.331 48.235 759.866 47.73 759.526 47.08C759.186 46.43 759.016 45.69 759.016 44.86C759.016 44.02 759.186 43.285 759.526 42.655C759.866 42.015 760.331 41.52 760.921 41.17C761.521 40.82 762.186 40.645 762.916 40.645ZM765.976 44.875C765.976 44.255 765.851 43.715 765.601 43.255C765.351 42.795 765.011 42.445 764.581 42.205C764.161 41.955 763.696 41.83 763.186 41.83C762.676 41.83 762.211 41.95 761.791 42.19C761.371 42.43 761.036 42.78 760.786 43.24C760.536 43.7 760.411 44.24 760.411 44.86C760.411 45.49 760.536 46.04 760.786 46.51C761.036 46.97 761.371 47.325 761.791 47.575C762.211 47.815 762.676 47.935 763.186 47.935C763.696 47.935 764.161 47.815 764.581 47.575C765.011 47.325 765.351 46.97 765.601 46.51C765.851 46.04 765.976 45.495 765.976 44.875ZM777.163 44.575C777.163 44.835 777.148 45.11 777.118 45.4H770.548C770.598 46.21 770.873 46.845 771.373 47.305C771.883 47.755 772.498 47.98 773.218 47.98C773.808 47.98 774.298 47.845 774.688 47.575C775.088 47.295 775.368 46.925 775.528 46.465H776.998C776.778 47.255 776.338 47.9 775.678 48.4C775.018 48.89 774.198 49.135 773.218 49.135C772.438 49.135 771.738 48.96 771.118 48.61C770.508 48.26 770.028 47.765 769.678 47.125C769.328 46.475 769.153 45.725 769.153 44.875C769.153 44.025 769.323 43.28 769.663 42.64C770.003 42 770.478 41.51 771.088 41.17C771.708 40.82 772.418 40.645 773.218 40.645C773.998 40.645 774.688 40.815 775.288 41.155C775.888 41.495 776.348 41.965 776.668 42.565C776.998 43.155 777.163 43.825 777.163 44.575ZM775.753 44.29C775.753 43.77 775.638 43.325 775.408 42.955C775.178 42.575 774.863 42.29 774.463 42.1C774.073 41.9 773.638 41.8 773.158 41.8C772.468 41.8 771.878 42.02 771.388 42.46C770.908 42.9 770.633 43.51 770.563 44.29H775.753ZM781.875 49.135C781.245 49.135 780.68 49.03 780.18 48.82C779.68 48.6 779.285 48.3 778.995 47.92C778.705 47.53 778.545 47.085 778.515 46.585H779.925C779.965 46.995 780.155 47.33 780.495 47.59C780.845 47.85 781.3 47.98 781.86 47.98C782.38 47.98 782.79 47.865 783.09 47.635C783.39 47.405 783.54 47.115 783.54 46.765C783.54 46.405 783.38 46.14 783.06 45.97C782.74 45.79 782.245 45.615 781.575 45.445C780.965 45.285 780.465 45.125 780.075 44.965C779.695 44.795 779.365 44.55 779.085 44.23C778.815 43.9 778.68 43.47 778.68 42.94C778.68 42.52 778.805 42.135 779.055 41.785C779.305 41.435 779.66 41.16 780.12 40.96C780.58 40.75 781.105 40.645 781.695 40.645C782.605 40.645 783.34 40.875 783.9 41.335C784.46 41.795 784.76 42.425 784.8 43.225H783.435C783.405 42.795 783.23 42.45 782.91 42.19C782.6 41.93 782.18 41.8 781.65 41.8C781.16 41.8 780.77 41.905 780.48 42.115C780.19 42.325 780.045 42.6 780.045 42.94C780.045 43.21 780.13 43.435 780.3 43.615C780.48 43.785 780.7 43.925 780.96 44.035C781.23 44.135 781.6 44.25 782.07 44.38C782.66 44.54 783.14 44.7 783.51 44.86C783.88 45.01 784.195 45.24 784.455 45.55C784.725 45.86 784.865 46.265 784.875 46.765C784.875 47.215 784.75 47.62 784.5 47.98C784.25 48.34 783.895 48.625 783.435 48.835C782.985 49.035 782.465 49.135 781.875 49.135Z" fill="white"/>
<path d="M930.645 43.765C930.645 42.745 930.875 41.83 931.335 41.02C931.795 40.2 932.42 39.56 933.21 39.1C934.01 38.64 934.895 38.41 935.865 38.41C937.005 38.41 938 38.685 938.85 39.235C939.7 39.785 940.32 40.565 940.71 41.575H939.075C938.785 40.945 938.365 40.46 937.815 40.12C937.275 39.78 936.625 39.61 935.865 39.61C935.135 39.61 934.48 39.78 933.9 40.12C933.32 40.46 932.865 40.945 932.535 41.575C932.205 42.195 932.04 42.925 932.04 43.765C932.04 44.595 932.205 45.325 932.535 45.955C932.865 46.575 933.32 47.055 933.9 47.395C934.48 47.735 935.135 47.905 935.865 47.905C936.625 47.905 937.275 47.74 937.815 47.41C938.365 47.07 938.785 46.585 939.075 45.955H940.71C940.32 46.955 939.7 47.73 938.85 48.28C938 48.82 937.005 49.09 935.865 49.09C934.895 49.09 934.01 48.865 933.21 48.415C932.42 47.955 931.795 47.32 931.335 46.51C930.875 45.7 930.645 44.785 930.645 43.765ZM946.327 49.135C945.557 49.135 944.857 48.96 944.227 48.61C943.607 48.26 943.117 47.765 942.757 47.125C942.407 46.475 942.232 45.725 942.232 44.875C942.232 44.035 942.412 43.295 942.772 42.655C943.142 42.005 943.642 41.51 944.272 41.17C944.902 40.82 945.607 40.645 946.387 40.645C947.167 40.645 947.872 40.82 948.502 41.17C949.132 41.51 949.627 42 949.987 42.64C950.357 43.28 950.542 44.025 950.542 44.875C950.542 45.725 950.352 46.475 949.972 47.125C949.602 47.765 949.097 48.26 948.457 48.61C947.817 48.96 947.107 49.135 946.327 49.135ZM946.327 47.935C946.817 47.935 947.277 47.82 947.707 47.59C948.137 47.36 948.482 47.015 948.742 46.555C949.012 46.095 949.147 45.535 949.147 44.875C949.147 44.215 949.017 43.655 948.757 43.195C948.497 42.735 948.157 42.395 947.737 42.175C947.317 41.945 946.862 41.83 946.372 41.83C945.872 41.83 945.412 41.945 944.992 42.175C944.582 42.395 944.252 42.735 944.002 43.195C943.752 43.655 943.627 44.215 943.627 44.875C943.627 45.545 943.747 46.11 943.987 46.57C944.237 47.03 944.567 47.375 944.977 47.605C945.387 47.825 945.837 47.935 946.327 47.935ZM956.342 40.63C957.342 40.63 958.152 40.935 958.772 41.545C959.392 42.145 959.702 43.015 959.702 44.155V49H958.352V44.35C958.352 43.53 958.147 42.905 957.737 42.475C957.327 42.035 956.767 41.815 956.057 41.815C955.337 41.815 954.762 42.04 954.332 42.49C953.912 42.94 953.702 43.595 953.702 44.455V49H952.337V40.78H953.702V41.95C953.972 41.53 954.337 41.205 954.797 40.975C955.267 40.745 955.782 40.63 956.342 40.63ZM963.596 41.905V46.75C963.596 47.15 963.681 47.435 963.851 47.605C964.021 47.765 964.316 47.845 964.736 47.845H965.741V49H964.511C963.751 49 963.181 48.825 962.801 48.475C962.421 48.125 962.231 47.55 962.231 46.75V41.905H961.166V40.78H962.231V38.71H963.596V40.78H965.741V41.905H963.596ZM966.885 44.86C966.885 44.02 967.055 43.285 967.395 42.655C967.735 42.015 968.2 41.52 968.79 41.17C969.39 40.82 970.055 40.645 970.785 40.645C971.505 40.645 972.13 40.8 972.66 41.11C973.19 41.42 973.585 41.81 973.845 42.28V40.78H975.225V49H973.845V47.47C973.575 47.95 973.17 48.35 972.63 48.67C972.1 48.98 971.48 49.135 970.77 49.135C970.04 49.135 969.38 48.955 968.79 48.595C968.2 48.235 967.735 47.73 967.395 47.08C967.055 46.43 966.885 45.69 966.885 44.86ZM973.845 44.875C973.845 44.255 973.72 43.715 973.47 43.255C973.22 42.795 972.88 42.445 972.45 42.205C972.03 41.955 971.565 41.83 971.055 41.83C970.545 41.83 970.08 41.95 969.66 42.19C969.24 42.43 968.905 42.78 968.655 43.24C968.405 43.7 968.28 44.24 968.28 44.86C968.28 45.49 968.405 46.04 968.655 46.51C968.905 46.97 969.24 47.325 969.66 47.575C970.08 47.815 970.545 47.935 971.055 47.935C971.565 47.935 972.03 47.815 972.45 47.575C972.88 47.325 973.22 46.97 973.47 46.51C973.72 46.04 973.845 45.495 973.845 44.875ZM977.022 44.875C977.022 44.025 977.192 43.285 977.532 42.655C977.872 42.015 978.342 41.52 978.942 41.17C979.552 40.82 980.247 40.645 981.027 40.645C982.037 40.645 982.867 40.89 983.517 41.38C984.177 41.87 984.612 42.55 984.822 43.42H983.352C983.212 42.92 982.937 42.525 982.527 42.235C982.127 41.945 981.627 41.8 981.027 41.8C980.247 41.8 979.617 42.07 979.137 42.61C978.657 43.14 978.417 43.895 978.417 44.875C978.417 45.865 978.657 46.63 979.137 47.17C979.617 47.71 980.247 47.98 981.027 47.98C981.627 47.98 982.127 47.84 982.527 47.56C982.927 47.28 983.202 46.88 983.352 46.36H984.822C984.602 47.2 984.162 47.875 983.502 48.385C982.842 48.885 982.017 49.135 981.027 49.135C980.247 49.135 979.552 48.96 978.942 48.61C978.342 48.26 977.872 47.765 977.532 47.125C977.192 46.485 977.022 45.735 977.022 44.875ZM988.308 41.905V46.75C988.308 47.15 988.393 47.435 988.563 47.605C988.733 47.765 989.028 47.845 989.448 47.845H990.453V49H989.223C988.463 49 987.893 48.825 987.513 48.475C987.133 48.125 986.943 47.55 986.943 46.75V41.905H985.878V40.78H986.943V38.71H988.308V40.78H990.453V41.905H988.308Z" fill="white"/>
<defs>
<clipPath id="clip0_2_5">
<rect width="128" height="31" fill="white" transform="translate(32 30)"/>
</clipPath>
</defs>
</svg>
